<?xml version="1.0" ?>
<svg data-name="Layer 1" id="Layer_1" viewBox="0 0 272 272" xmlns="http://www.w3.org/2000/svg"><defs>
<style>.cls-1{fill:#28bea0;}.cls-2{fill:#94e0d6;}</style>
</defs><title/>
<path class="cls-1" d="M124.71,187.66H149.2c0-40.82,11.61-80.72,19-121C169.45,60.19,155.6,52,137,52h0c-18.65,0-32.5,8.19-31.25,14.7C113.09,106.94,124.71,146.85,124.71,187.66Z"/>
<path class="cls-2" d="M124.71,187.66c0-40.82-11.61-80.72-19-121a5.45,5.45,0,0,1,.94-4c-4.17-4.7-18.17-5.83-33.28.13h0C56,69.76,46.15,82.44,49.71,88c21.67,34.7,47.15,67.54,62.16,105.49l14.85-5.87Z"/>
<path class="cls-1" d="M124.67,183.94q0,1.86,0,3.72h2l-14.85,5.87c-14.79-37.4-39.74-69.83-61.2-104-6-2-18.71,3.06-29.49,14.57h0C8.46,117.78,5,133.48,10.6,137,45,159.08,82.14,177.83,112,205.7l16.72-17.9Q126.65,185.9,124.67,183.94Z"/>
<path class="cls-2" d="M198.64,62.88h0c-13.94-5.49-26.92-5-32.13-1.16a6.09,6.09,0,0,1,1.68,5c-7.39,40.24-19,80.14-19,121h-3.92l14.85,5.87c15-38,40.49-70.8,62.16-105.49C225.85,82.44,216,69.76,198.64,62.88Z"/>
<path class="cls-1" d="M250.82,104.14h0C240,92.63,227.35,87.6,221.33,89.57c-21.46,34.14-46.41,66.57-61.2,104l-14.85-5.87h3.92c0-1.89,0-3.77.08-5.66q-2.93,2.95-6,5.79L160,205.7C189.86,177.83,227,159.08,261.4,137,267,133.48,263.54,117.78,250.82,104.14Z"/>
<path class="cls-1" d="M88,210.4a129.8,129.8,0,0,0,98,0c-2-9.11-4-18.78-6.09-28.86a256.55,256.55,0,0,1-85.79,0C92,191.62,90,201.3,88,210.4Z"/>
</svg>